{
    "asset" : {
        "generator" : "Khronos glTF Blender I/O v3.4.50",
        "version" : "2.0"
    },
    "extensionsUsed" : [
        "KHR_materials_specular",
        "KHR_materials_ior"
    ],
    "scene" : 0,
    "scenes" : [
        {
            "name" : "Scene",
            "nodes" : [
                0
            ]
        }
    ],
    "nodes" : [
        {
            "mesh" : 0,
            "name" : "Cylindre",
            "scale" : [
                0.15000000596046448,
                0.02500000037252903,
                0.15000000596046448
            ],
            "translation" : [
                -0.019793957471847534,
                0,
                -0.018493324518203735
            ]
        }
    ],
    "materials" : [
        {
            "doubleSided" : true,
            "extensions" : {
                "KHR_materials_specular" : {
                    "specularColorTexture" : {
                        "index" : 0
                    }
                },
                "KHR_materials_ior" : {
                    "ior" : 1.4500000476837158
                }
            },
            "name" : "CheesMaterial",
            "normalTexture" : {
                "index" : 1
            },
            "pbrMetallicRoughness" : {
                "baseColorTexture" : {
                    "index" : 2
                },
                "metallicFactor" : 0,
                "metallicRoughnessTexture" : {
                    "index" : 3
                }
            }
        }
    ],
    "meshes" : [
        {
            "name" : "Cylindre",
            "primitives" : [
                {
                    "attributes" : {
                        "POSITION" : 0,
                        "TEXCOORD_0" : 1,
                        "NORMAL" : 2
                    },
                    "indices" : 3,
                    "material" : 0
                }
            ]
        }
    ],
    "textures" : [
        {
            "sampler" : 0,
            "source" : 0
        },
        {
            "sampler" : 0,
            "source" : 1
        },
        {
            "sampler" : 0,
            "source" : 2
        },
        {
            "sampler" : 0,
            "source" : 3
        }
    ],
    "images" : [
        {
            "mimeType" : "image/png",
            "name" : "Image",
            "uri" : "Image.png"
        },
        {
            "mimeType" : "image/jpeg",
            "name" : "Normal",
            "uri" : "Normal.jpg"
        },
        {
            "mimeType" : "image/jpeg",
            "name" : "Albedo",
            "uri" : "Albedo.jpg"
        },
        {
            "mimeType" : "image/png",
            "name" : "Roughness",
            "uri" : "Roughness.png"
        }
    ],
    "accessors" : [
        {
            "bufferView" : 0,
            "componentType" : 5126,
            "count" : 4846,
            "max" : [
                1.1499708890914917,
                2.1463630199432373,
                1.1607458591461182
            ],
            "min" : [
                -0.863715410232544,
                0.1375187486410141,
                -0.898406982421875
            ],
            "type" : "VEC3"
        },
        {
            "bufferView" : 1,
            "componentType" : 5126,
            "count" : 4846,
            "type" : "VEC2"
        },
        {
            "bufferView" : 2,
            "componentType" : 5126,
            "count" : 4846,
            "type" : "VEC3"
        },
        {
            "bufferView" : 3,
            "componentType" : 5123,
            "count" : 7350,
            "type" : "SCALAR"
        }
    ],
    "bufferViews" : [
        {
            "buffer" : 0,
            "byteLength" : 58152,
            "byteOffset" : 0,
            "target" : 34962
        },
        {
            "buffer" : 0,
            "byteLength" : 38768,
            "byteOffset" : 58152,
            "target" : 34962
        },
        {
            "buffer" : 0,
            "byteLength" : 58152,
            "byteOffset" : 96920,
            "target" : 34962
        },
        {
            "buffer" : 0,
            "byteLength" : 14700,
            "byteOffset" : 155072,
            "target" : 34963
        }
    ],
    "samplers" : [
        {
            "magFilter" : 9729,
            "minFilter" : 9987
        }
    ],
    "buffers" : [
        {
            "byteLength" : 169772,
            "uri" : "cheeese.bin"
        }
    ]
}
